<?xml version="1.0" encoding="UTF-8"?>
<!DOCTYPE svg PUBLIC "-//W3C//DTD SVG 1.1//EN" "http://www.w3.org/Graphics/SVG/1.1/DTD/svg11.dtd">
<svg xmlns="http://www.w3.org/2000/svg" version="1.1" width="1000px" height="1000px" style="shape-rendering:geometricPrecision; text-rendering:geometricPrecision; image-rendering:optimizeQuality; fill-rule:evenodd; clip-rule:evenodd" xmlns:xlink="http://www.w3.org/1999/xlink">
<g><path style="opacity:1" fill="#000000" d="M 527.5,107.5 C 549.831,107.998 561.331,119.331 562,141.5C 557.524,162.108 550.524,181.775 541,200.5C 532.138,210.848 520.972,214.348 507.5,211C 491.03,203.556 484.53,191.056 488,173.5C 491.607,162.678 495.607,152.012 500,141.5C 500.647,123.041 509.813,111.707 527.5,107.5 Z"/></g>
<g><path style="opacity:1" fill="#000000" d="M 685.5,116.5 C 708.296,113.97 721.63,123.97 725.5,146.5C 724.932,151.643 723.766,156.643 722,161.5C 702.966,192.201 676.466,213.701 642.5,226C 623.4,228.87 611.233,221.036 606,202.5C 604.432,191.928 607.266,182.762 614.5,175C 636.758,160.916 656.425,143.749 673.5,123.5C 677.062,120.241 681.062,117.907 685.5,116.5 Z"/></g>
<g><path style="opacity:1" fill="#000000" d="M 413.5,117.5 C 430.425,116.285 441.592,123.618 447,139.5C 451.603,153.841 453.603,168.508 453,183.5C 448.491,198.004 438.657,205.67 423.5,206.5C 408.498,204.93 398.998,196.93 395,182.5C 394.2,172.551 392.2,162.884 389,153.5C 387.523,134.754 395.689,122.754 413.5,117.5 Z"/></g>
<g><path style="opacity:1" fill="#000000" d="M 273.5,191.5 C 282.138,191.159 289.805,193.659 296.5,199C 311.963,210.796 325.796,224.296 338,239.5C 347.393,256.054 344.893,270.554 330.5,283C 320.817,288.155 310.817,288.822 300.5,285C 289.534,275.703 278.868,266.036 268.5,256C 258.946,250.78 251.78,243.28 247,233.5C 242.46,210.891 251.293,196.891 273.5,191.5 Z"/></g>
<g><path style="opacity:1" fill="#000000" d="M 764.5,221.5 C 783.277,219.137 795.777,226.804 802,244.5C 804.444,262.115 797.61,274.615 781.5,282C 763.74,290.88 745.74,299.214 727.5,307C 705.369,309.881 692.703,300.214 689.5,278C 690.12,266.755 695.12,258.088 704.5,252C 719.833,244.667 735.167,237.333 750.5,230C 754.764,226.374 759.431,223.541 764.5,221.5 Z"/></g>
<g><path style="opacity:1" fill="#000000" d="M 494.5,236.5 C 525.202,238.207 555.202,243.707 584.5,253C 589.251,253.189 593.917,253.855 598.5,255C 626.11,271.692 645.61,295.192 657,325.5C 665.147,346.439 667.814,368.105 665,390.5C 663.055,441.242 641.221,480.742 599.5,509C 562.882,533.205 522.549,546.205 478.5,548C 445.931,549.584 413.597,547.584 381.5,542C 362.653,537.573 345.32,529.906 329.5,519C 322.851,512.688 317.351,505.521 313,497.5C 309.061,489.955 305.394,482.288 302,474.5C 295.471,412.916 311.138,357.916 349,309.5C 388.263,266.952 436.763,242.618 494.5,236.5 Z"/></g>
<g><path style="opacity:1" fill="#000000" d="M 210.5,288.5 C 218.801,287.752 226.801,288.918 234.5,292C 249.199,296.599 262.699,303.432 275,312.5C 282.499,321.663 284.499,331.997 281,343.5C 274.158,358.173 262.658,364.34 246.5,362C 236.099,358.642 226.099,354.309 216.5,349C 192.918,344.076 184.084,329.909 190,306.5C 194.232,297.429 201.065,291.429 210.5,288.5 Z"/></g>
<g><path style="opacity:1" fill="#000000" d="M 737.5,355.5 C 749.329,356.162 760.662,358.995 771.5,364C 790.239,365.406 800.239,375.406 801.5,394C 800.992,409.351 793.325,419.018 778.5,423C 774.5,423.667 770.5,423.667 766.5,423C 755.048,420.072 743.715,416.738 732.5,413C 715.477,404.276 709.977,390.776 716,372.5C 720.928,363.811 728.095,358.144 737.5,355.5 Z"/></g>
<g><path style="opacity:1" fill="#000000" d="M 157.5,383.5 C 179.672,383.651 201.672,385.651 223.5,389.5C 247.055,395.611 255.222,410.278 248,433.5C 241.611,444.95 231.778,450.617 218.5,450.5C 202.862,448.075 187.196,445.742 171.5,443.5C 152.429,446.886 139.596,439.552 133,421.5C 130.615,401.767 138.782,389.1 157.5,383.5 Z"/></g>
<g><path style="opacity:1" fill="#000000" d="M 698.5,480.5 C 706.185,479.736 713.519,480.902 720.5,484C 723.572,486.951 726.739,489.784 730,492.5C 735.249,502.067 741.249,511.067 748,519.5C 752.838,543.163 743.338,556.83 719.5,560.5C 712.867,560.012 706.867,557.845 701.5,554C 691.737,543.642 683.57,532.142 677,519.5C 673.25,500.324 680.417,487.324 698.5,480.5 Z"/></g>
<g><path style="opacity:1" fill="#000000" d="M 257.5,502.5 C 277.857,502.815 289.19,512.982 291.5,533C 290.897,548.855 282.897,558.855 267.5,563C 244.053,568.861 220.72,575.028 197.5,581.5C 178.714,579.553 168.714,569.219 167.5,550.5C 167.681,536.832 174.014,527.332 186.5,522C 210.24,515.318 233.906,508.818 257.5,502.5 Z"/></g>
<g><path style="opacity:1" fill="#000000" d="M 999.5,579.5 C 999.5,686.833 999.5,794.167 999.5,901.5C 966.93,909.213 934.263,909.38 901.5,902C 885.815,898.729 870.148,895.729 854.5,893C 845.605,916.852 837.605,941.019 830.5,965.5C 844.9,977.24 859.566,988.573 874.5,999.5C 833.167,999.5 791.833,999.5 750.5,999.5C 706.783,967.298 663.45,934.465 620.5,901C 599.873,884.041 579.539,866.708 559.5,849C 540.298,828.8 521.465,808.3 503,787.5C 491.303,770.781 481.137,753.114 472.5,734.5C 438.16,781.479 401.66,826.813 363,870.5C 319.06,916.62 272.56,959.62 223.5,999.5C 173.5,999.5 123.5,999.5 73.5,999.5C 68.4264,972.99 64.0931,946.323 60.5,919.5C 39.9189,920.515 19.5856,918.848 -0.5,914.5C -0.5,815.167 -0.5,715.833 -0.5,616.5C 2.26149,614.788 5.26149,613.622 8.5,613C 27.9333,610.344 47.1,606.511 66,601.5C 74.6816,602.462 83.1816,604.295 91.5,607C 130.391,602.065 162.224,614.565 187,644.5C 190.721,649.275 193.388,654.609 195,660.5C 201.587,667.091 208.753,672.924 216.5,678C 228.716,688.267 235.216,701.433 236,717.5C 239.625,749.288 237.292,780.622 229,811.5C 214.541,851.963 188.041,881.796 149.5,901C 143.929,903.037 138.429,905.204 133,907.5C 135.491,930.605 138.825,953.605 143,976.5C 172.676,955.904 201.176,933.737 228.5,910C 298.948,846.245 362.114,776.412 418,700.5C 430.333,680.833 442.667,661.167 455,641.5C 469.039,623.801 486.539,619.301 507.5,628C 516.143,633.445 522.309,640.945 526,650.5C 533.624,675.043 542.624,699.043 553,722.5C 559.181,734.871 566.848,746.204 576,756.5C 595.531,775.699 615.364,794.532 635.5,813C 680.424,849.928 725.924,886.094 772,921.5C 778.487,903.376 784.153,885.043 789,866.5C 760.255,848.424 738.589,824.091 724,793.5C 718.584,776.261 715.584,758.594 715,740.5C 714.333,725.167 714.333,709.833 715,694.5C 731.763,665.748 750.096,638.081 770,611.5C 777.796,602.036 785.962,592.869 794.5,584C 807.816,570.837 823.483,561.504 841.5,556C 849.571,554.177 857.738,553.011 866,552.5C 897.105,554.054 927.605,559.221 957.5,568C 965.358,570.617 973.025,573.617 980.5,577C 986.785,578.244 993.118,579.077 999.5,579.5 Z"/></g>
<g><path style="opacity:1" fill="#000000" d="M 604.5,558.5 C 623.27,556.127 635.77,563.794 642,581.5C 644.617,596.916 647.617,612.25 651,627.5C 653.722,647.243 645.555,659.743 626.5,665C 605.287,665.794 593.12,655.628 590,634.5C 585.704,617.397 583.371,600.064 583,582.5C 586.191,570.815 593.357,562.815 604.5,558.5 Z"/></g>
<g><path style="opacity:1" fill="#000000" d="M 367.5,563.5 C 392.016,564.511 403.183,577.178 401,601.5C 399.607,605.286 397.941,608.952 396,612.5C 383.167,630.667 367.667,646.167 349.5,659C 329.623,666.711 314.79,661.211 305,642.5C 300.836,628.332 304.336,616.499 315.5,607C 321.677,604.081 327.344,600.414 332.5,596C 339.26,587.15 346.26,578.484 353.5,570C 357.877,566.975 362.544,564.808 367.5,563.5 Z"/></g>
</svg>
